<svg width="88" height="32" viewBox="0 0 88 32" fill="none" xmlns="http://www.w3.org/2000/svg">
<g clip-path="url(#clip0_1238_6928)">
<mask id="mask0_1238_6928" style="mask-type:luminance" maskUnits="userSpaceOnUse" x="0" y="0" width="88" height="32">
<path d="M88 0H0V32H88V0Z" fill="white"/>
</mask>
<g mask="url(#mask0_1238_6928)">
<path d="M11.9964 0.607106C13.3971 -0.202369 15.1234 -0.202369 16.5241 0.607106L26.2598 6.23343C27.6588 7.0419 28.5205 8.53504 28.5205 10.1508V21.4918C28.5205 23.1075 27.6588 24.6007 26.2598 25.4091L16.5241 31.0355C15.1234 31.8449 13.3971 31.8449 11.9964 31.0355L2.26062 25.4091C0.861654 24.6007 0 23.1075 0 21.4918V10.1508C0 8.53504 0.861654 7.04189 2.26062 6.23343L11.9964 0.607106Z" fill="white"/>
<path fill-rule="evenodd" clip-rule="evenodd" d="M6.46484 11.8377C6.46484 11.6512 6.66676 11.5345 6.82835 11.6278L12.5243 14.9139C12.6744 15.0005 12.7668 15.1605 12.7668 15.3338V23.3599C12.7668 23.5465 12.5649 23.6631 12.4033 23.5699L6.70736 20.2838C6.55729 20.1972 6.46484 20.0371 6.46484 19.8639V17.443C6.46484 17.3502 6.56487 17.2918 6.64566 17.3375L10.0006 19.2337C10.0814 19.2794 10.1814 19.221 10.1814 19.1282V16.6159C10.1814 16.4994 10.1187 16.3919 10.0173 16.3345L6.71107 14.4658C6.55892 14.3798 6.46484 14.2186 6.46484 14.0438V11.8377ZM21.6947 11.6278C21.8563 11.5345 22.0582 11.6512 22.0582 11.8377V14.0438C22.0582 14.2186 21.9641 14.3798 21.812 14.4658L18.5058 16.3345C18.4044 16.3919 18.3417 16.4994 18.3417 16.6159V19.1282C18.3417 19.221 18.4417 19.2794 18.5225 19.2337L21.8774 17.3375C21.9582 17.2918 22.0582 17.3502 22.0582 17.443V19.8639C22.0582 20.0371 21.9658 20.1972 21.8157 20.2838L16.1197 23.5699C15.9582 23.6631 15.7562 23.5465 15.7562 23.3599V15.3338C15.7562 15.1605 15.8487 15.0005 15.9988 14.9139L21.6947 11.6278ZM13.7818 7.20706C14.0792 7.03775 14.4439 7.03775 14.7412 7.20707L19.4286 9.87579C19.5913 9.96843 19.592 10.2027 19.4299 10.2963L17.087 11.6493C16.9883 11.7063 16.8668 11.7071 16.7674 11.6513L14.4196 10.3351C14.3214 10.2801 14.2017 10.2801 14.1035 10.3351L11.7557 11.6513C11.6563 11.7071 11.5348 11.7063 11.4361 11.6493L9.09315 10.2963C8.93101 10.2027 8.93173 9.96843 9.09443 9.87579L13.7818 7.20706Z" fill="black"/>
<path fill-rule="evenodd" clip-rule="evenodd" d="M41.1489 22.2937C42.3774 22.2937 42.9025 22.2937 44.1158 22.2937H47.2217C47.3109 22.2937 47.3832 22.2214 47.3832 22.1321V12.034C47.3832 11.9447 47.3109 11.8724 47.2217 11.8724H44.2774C44.1882 11.8724 44.1158 11.9447 44.1158 12.034V17.9031C44.1158 18.3883 44.0206 18.7295 43.6701 19.003C43.3196 19.2765 42.8817 19.4022 42.2197 19.4022C41.5577 19.4022 40.8328 19.2736 40.5761 19.003C40.3195 18.7324 40.1912 18.339 40.1912 17.8229V12.034C40.1912 11.9447 40.1188 11.8724 40.0296 11.8724H37.0853C36.9961 11.8724 36.9238 11.9447 36.9238 12.034V17.9792C36.9238 19.54 37.2743 20.6792 37.9753 21.3966C38.6764 22.1141 39.7342 22.2937 41.1489 22.2937ZM52.4509 22.2937C52.5093 22.2937 52.5631 22.2622 52.5917 22.2114L54.129 19.4799C54.1596 19.4256 54.2375 19.4248 54.2691 19.4785L55.8786 22.2141C55.9077 22.2634 55.9606 22.2937 56.0179 22.2937H59.2858C59.4136 22.2937 59.4908 22.1523 59.4217 22.0448L56.2838 17.1615C56.2144 17.0536 56.2155 16.9148 56.2866 16.8079L59.4015 12.1235C59.4729 12.0161 59.3959 11.8724 59.267 11.8724H55.8859C55.8289 11.8724 55.7762 11.9024 55.7471 11.9513L54.3241 14.3417C54.2927 14.3945 54.2161 14.3943 54.185 14.3413L52.78 11.9521C52.751 11.9027 52.698 11.8724 52.6407 11.8724H49.2221C49.0932 11.8724 49.0162 12.0158 49.0874 12.1232L52.0915 16.6578C52.162 16.7642 52.1633 16.9021 52.0948 17.0098L48.8914 22.0454C48.8229 22.153 48.9002 22.2937 49.0277 22.2937H52.4509ZM65.3742 22.5672C66.7063 22.5672 68.0063 22.2441 68.9006 21.7698C68.9675 21.7344 68.9983 21.6561 68.9761 21.5836L68.2964 19.3672C68.2655 19.2662 68.1475 19.2216 68.0535 19.2699C67.3787 19.6165 66.5319 19.7148 65.6652 19.7148C63.8521 19.7148 63.2091 18.5087 63.2091 17.0216C63.2091 15.502 63.9609 14.4243 65.7497 14.3998C66.3641 14.3998 66.953 14.4925 67.5236 14.6352C67.6045 14.6555 67.6883 14.6118 67.7167 14.5334C68.127 13.4024 68.1599 13.0761 68.4245 12.2896C68.4518 12.2083 68.4121 12.119 68.3322 12.0881C67.3924 11.7249 66.3761 11.5703 65.3742 11.5703C63.6215 11.5829 62.282 12.0769 61.3556 13.0524C60.4292 14.0279 59.966 15.2531 59.966 17.0404C59.966 18.8404 60.4292 20.0781 61.3556 21.0662C62.282 22.0543 63.6215 22.5546 65.3742 22.5672ZM75.5388 22.5672C76.7863 22.5672 78.074 22.4827 79.1266 21.7538C79.1308 21.7508 79.1289 21.7513 79.1335 21.7491C79.1753 21.7288 79.1991 21.6755 79.1832 21.6319L78.403 19.4968C78.3751 19.4204 78.2944 19.3754 78.2159 19.3967C78.2091 19.3985 78.2032 19.4002 78.1984 19.4017C77.4929 19.6198 76.7483 19.8484 75.9894 19.8484C74.658 19.8484 73.472 19.5414 73.1036 18.4147C73.087 18.3641 73.1257 18.3133 73.179 18.3133H79.7901C79.8793 18.3133 79.9517 18.241 79.9517 18.1517V17.0106C79.9517 15.261 79.5072 13.9299 78.6184 13.0173C77.7295 12.1047 76.5027 11.6484 74.9379 11.6484C73.0568 11.6484 71.3265 12.5487 70.4123 14.2257C69.9491 15.0753 69.7175 16.0917 69.7175 17.2749C69.7175 18.4077 69.9428 19.0114 70.3935 19.8673C71.4025 21.7835 73.4713 22.5672 75.5388 22.5672ZM73.095 16.1122C73.0503 16.1122 73.014 16.0759 73.0154 16.0313C73.0376 15.3024 73.3579 14.8128 73.6836 14.5508C74.0211 14.2793 74.4872 14.1328 74.9379 14.1328C75.4261 14.1328 75.9369 14.3089 76.2109 14.5697C76.4753 14.8213 76.9477 15.303 76.9807 16.0313C76.9827 16.0759 76.9463 16.1122 76.9017 16.1122H73.095ZM84.6719 22.5658C84.7617 22.5666 84.8349 22.494 84.8349 22.4042V7.21628C84.8349 7.12703 84.7626 7.05469 84.6733 7.05469H81.7291C81.6398 7.05469 81.5675 7.12703 81.5675 7.21628V22.3787C81.5675 22.4674 81.639 22.5395 81.7277 22.5403L84.6719 22.5658Z" fill="white"/>
</g>
</g>
<defs>
<clipPath id="clip0_1238_6928">
<rect width="88" height="32" fill="white"/>
</clipPath>
</defs>
</svg>
