<svg width="19" height="18" viewBox="0 0 19 18" fill="none" xmlns="http://www.w3.org/2000/svg">
<mask id="mask0_4444_106053" style="mask-type:alpha" maskUnits="userSpaceOnUse" x="0" y="0" width="19" height="18">
<path fill-rule="evenodd" clip-rule="evenodd" d="M10.288 0.690982C9.98862 -0.230328 8.68521 -0.230327 8.38585 0.690984L6.86726 5.36474C6.73338 5.77677 6.34943 6.05573 5.9162 6.05573H1.00192C0.0331932 6.05573 -0.369582 7.29534 0.414132 7.86474L4.38987 10.7533C4.74036 11.0079 4.88702 11.4593 4.75314 11.8713L3.23454 16.5451C2.93519 17.4664 3.98967 18.2325 4.77339 17.6631L8.74912 14.7746C9.09961 14.5199 9.57421 14.5199 9.9247 14.7746L13.9004 17.6631C14.6841 18.2325 15.7386 17.4664 15.4393 16.5451L13.9207 11.8713C13.7868 11.4593 13.9335 11.0079 14.284 10.7533L18.2597 7.86474C19.0434 7.29534 18.6406 6.05573 17.6719 6.05573H12.7576C12.3244 6.05573 11.9404 5.77677 11.8066 5.36474L10.288 0.690982Z" fill="#F8DB46"/>
</mask>
<g mask="url(#mask0_4444_106053)">
<path fill-rule="evenodd" clip-rule="evenodd" d="M10.288 0.690982C9.98862 -0.230328 8.68521 -0.230327 8.38585 0.690984L6.86726 5.36474C6.73338 5.77677 6.34943 6.05573 5.9162 6.05573H1.00192C0.0331932 6.05573 -0.369582 7.29534 0.414132 7.86474L4.38987 10.7533C4.74036 11.0079 4.88702 11.4593 4.75314 11.8713L3.23454 16.5451C2.93519 17.4664 3.98967 18.2325 4.77339 17.6631L8.74912 14.7746C9.09961 14.5199 9.57421 14.5199 9.9247 14.7746L13.9004 17.6631C14.6841 18.2325 15.7386 17.4664 15.4393 16.5451L13.9207 11.8713C13.7868 11.4593 13.9335 11.0079 14.284 10.7533L18.2597 7.86474C19.0434 7.29534 18.6406 6.05573 17.6719 6.05573H12.7576C12.3244 6.05573 11.9404 5.77677 11.8066 5.36474L10.288 0.690982Z" fill="#05060F" fill-opacity="0.05"/>
<path d="M-1 0H13.3618V18H-1V0Z" fill="#F5C418"/>
</g>
</svg>
