<svg width="19" height="19" viewBox="0 0 19 19" fill="none" xmlns="http://www.w3.org/2000/svg">
<path fill-rule="evenodd" clip-rule="evenodd" d="M10.4618 1.49103C10.1624 0.569721 8.85903 0.569722 8.55968 1.49103L7.04108 6.16479C6.90721 6.57682 6.52325 6.85578 6.09003 6.85578H1.17574C0.207021 6.85578 -0.195754 8.09539 0.58796 8.66479L4.5637 11.5533C4.91419 11.808 5.06084 12.2593 4.92697 12.6714L3.40837 17.3451C3.10902 18.2664 4.1635 19.0326 4.94722 18.4632L8.92295 15.5746C9.27344 15.32 9.74804 15.32 10.0985 15.5746L14.0743 18.4632C14.858 19.0326 15.9125 18.2664 15.6131 17.3451L14.0945 12.6714C13.9606 12.2593 14.1073 11.808 14.4578 11.5533L18.4335 8.66479C19.2172 8.09539 18.8145 6.85578 17.8457 6.85578H12.9314C12.4982 6.85578 12.1143 6.57682 11.9804 6.16479L10.4618 1.49103Z" fill="#FDC500"/>
</svg>
